<?xml version="1.0" encoding="utf-8"?>
<!-- Generator: Adobe Illustrator 23.0.1, SVG Export Plug-In . SVG Version: 6.00 Build 0)  -->
<svg version="1.1" id="Layer_1" xmlns="http://www.w3.org/2000/svg" xmlns:xlink="http://www.w3.org/1999/xlink" x="0px" y="0px"
	 viewBox="0 0 64 64" style="enable-background:new 0 0 64 64;" xml:space="preserve">
<style type="text/css">
	.st0{fill:#231F20;}
</style>
<path id="XMLID_488_" class="st0" d="M64,34.83c0-5.51-4.49-10-10-10H30.83l4.59-4.59c2.51-2.51,3.9-5.86,3.9-9.41
	c0-3.56-1.39-6.9-3.9-9.41L34,0L9.13,24.87C4.02,25.32,0,29.61,0,34.83c0,5.51,4.49,10,10,10h39.17l-7.15,7.15
	c-5.21-3.83-12.59-3.41-17.3,1.3l-8,8l2.83,2.83l8-8c3.15-3.15,8-3.57,11.6-1.26l-6.43,6.43l2.83,2.83l9.41-9.41l0,0l9.91-9.91
	C59.98,44.34,64,40.05,64,34.83z M33.85,5.81c0.95,1.48,1.47,3.21,1.47,5.02c0,2.49-0.97,4.83-2.73,6.59l-7.41,7.41H14.83
	L33.85,5.81z M4,34.83c0-3.31,2.69-6,6-6h16.83H54c3.31,0,6,2.69,6,6s-2.69,6-6,6H10C6.69,40.83,4,38.14,4,34.83z"/>
</svg>
